<svg xmlns="http://www.w3.org/2000/svg" xmlns:xlink="http://www.w3.org/1999/xlink" version="1.1" width="256" height="256" viewBox="0 0 256 256" xml:space="preserve">

<defs>
</defs>
<g style="stroke: none; stroke-width: 0; stroke-dasharray: none; stroke-linecap: butt; stroke-linejoin: miter; stroke-miterlimit: 10; fill: none; fill-rule: nonzero; opacity: 1;" transform="translate(1.4065934065934016 1.4065934065934016) scale(2.81 2.81)" >
	<path d="M 25.098 46.604 h -8.424 c -0.749 0 -1.434 -0.418 -1.777 -1.083 c -0.343 -0.665 -0.286 -1.466 0.147 -2.076 l 7.684 -10.802 c 0.437 -0.613 0.498 -1.388 0.164 -2.073 c -0.15 -0.309 -0.609 -1.031 -1.612 -1.077 l -0.115 -0.002 c -1.373 0 -2.49 1.117 -2.49 2.49 c 0 1.104 -0.896 2 -2 2 s -2 -0.896 -2 -2 c 0 -3.579 2.911 -6.49 6.49 -6.49 c 0.098 0 0.194 0.002 0.291 0.006 c 2.187 0.099 4.066 1.34 5.032 3.32 c 0.971 1.992 0.78 4.346 -0.5 6.145 l -5.437 7.643 h 4.547 c 1.104 0 2 0.896 2 2 S 26.203 46.604 25.098 46.604 z" style="stroke: none; stroke-width: 1; stroke-dasharray: none; stroke-linecap: butt; stroke-linejoin: miter; stroke-miterlimit: 10; fill: rgb(0,0,0); fill-rule: nonzero; opacity: 1;" transform=" matrix(1 0 0 1 0 0) " stroke-linecap="round" />
	<path d="M 40.326 46.604 c -1.104 0 -2 -0.896 -2 -2 v -1.181 h -7.996 c -0.75 0 -1.437 -0.419 -1.779 -1.086 c -0.342 -0.667 -0.283 -1.47 0.154 -2.08 l 9.996 -13.933 c 0.505 -0.706 1.408 -1.005 2.237 -0.738 c 0.827 0.266 1.388 1.035 1.388 1.904 v 11.933 h 1.2 c 1.104 0 2 0.896 2 2 s -0.896 2 -2 2 h -1.2 v 1.181 C 42.326 45.708 41.431 46.604 40.326 46.604 z M 34.227 39.423 h 4.1 v -5.714 L 34.227 39.423 z" style="stroke: none; stroke-width: 1; stroke-dasharray: none; stroke-linecap: butt; stroke-linejoin: miter; stroke-miterlimit: 10; fill: rgb(0,0,0); fill-rule: nonzero; opacity: 1;" transform=" matrix(1 0 0 1 0 0) " stroke-linecap="round" />
	<path d="M 58.815 64.51 c -0.344 0 -0.692 -0.089 -1.01 -0.274 c -0.953 -0.56 -1.272 -1.785 -0.714 -2.737 l 8.272 -14.103 h -6.547 c -1.104 0 -2 -0.895 -2 -2 c 0 -1.104 0.896 -2 2 -2 h 10.039 c 0.717 0 1.379 0.384 1.735 1.006 s 0.353 1.388 -0.01 2.006 l -10.04 17.113 C 60.17 64.156 59.502 64.51 58.815 64.51 z" style="stroke: none; stroke-width: 1; stroke-dasharray: none; stroke-linecap: butt; stroke-linejoin: miter; stroke-miterlimit: 10; fill: rgb(0,0,0); fill-rule: nonzero; opacity: 1;" transform=" matrix(1 0 0 1 0 0) " stroke-linecap="round" />
	<path d="M 40.35 64.51 c -0.333 0 -0.671 -0.083 -0.982 -0.259 c -0.961 -0.543 -1.301 -1.764 -0.757 -2.725 l 19.783 -35.02 c 0.543 -0.96 1.764 -1.301 2.725 -0.757 c 0.962 0.543 1.301 1.763 0.758 2.725 L 42.093 63.493 C 41.726 64.145 41.048 64.51 40.35 64.51 z" style="stroke: none; stroke-width: 1; stroke-dasharray: none; stroke-linecap: butt; stroke-linejoin: miter; stroke-miterlimit: 10; fill: rgb(0,0,0); fill-rule: nonzero; opacity: 1;" transform=" matrix(1 0 0 1 0 0) " stroke-linecap="round" />
	<path d="M 42.265 87.265 C 18.96 87.265 0 68.305 0 45 C 0 21.695 18.96 2.735 42.265 2.735 S 84.53 21.695 84.53 45 c 0 1.104 -0.896 2 -2 2 s -2 -0.896 -2 -2 c 0 -21.1 -17.166 -38.265 -38.265 -38.265 C 21.166 6.735 4 23.9 4 45 s 17.166 38.265 38.265 38.265 c 13.546 0 26.214 -7.273 33.059 -18.982 c 0.558 -0.953 1.781 -1.274 2.736 -0.717 c 0.953 0.558 1.274 1.782 0.717 2.736 C 71.218 79.232 57.228 87.265 42.265 87.265 z" style="stroke: none; stroke-width: 1; stroke-dasharray: none; stroke-linecap: butt; stroke-linejoin: miter; stroke-miterlimit: 10; fill: rgb(0,0,0); fill-rule: nonzero; opacity: 1;" transform=" matrix(1 0 0 1 0 0) " stroke-linecap="round" />
	<path d="M 82.53 47 c -0.512 0 -1.023 -0.195 -1.414 -0.586 l -5.47 -5.47 c -0.781 -0.781 -0.781 -2.047 0 -2.828 c 0.781 -0.781 2.047 -0.781 2.828 0 l 4.056 4.055 l 4.056 -4.055 c 0.781 -0.781 2.047 -0.781 2.828 0 c 0.781 0.781 0.781 2.047 0 2.828 l -5.47 5.47 C 83.554 46.805 83.042 47 82.53 47 z" style="stroke: none; stroke-width: 1; stroke-dasharray: none; stroke-linecap: butt; stroke-linejoin: miter; stroke-miterlimit: 10; fill: rgb(0,0,0); fill-rule: nonzero; opacity: 1;" transform=" matrix(1 0 0 1 0 0) " stroke-linecap="round" />
</g>
</svg>