<?xml version="1.0" encoding="utf-8"?>
<!-- Svg Vector Icons : http://www.onlinewebfonts.com/icon -->
<!DOCTYPE svg PUBLIC "-//W3C//DTD SVG 1.1//EN" "http://www.w3.org/Graphics/SVG/1.1/DTD/svg11.dtd">
<svg version="1.1" xmlns="http://www.w3.org/2000/svg" xmlns:xlink="http://www.w3.org/1999/xlink" x="0px" y="0px" viewBox="0 0 256 256" enable-background="new 0 0 256 256" xml:space="preserve">
<metadata> Svg Vector Icons : http://www.onlinewebfonts.com/icon </metadata>
<g><g><path fill="#000000" d="M206,92.8c-10.1,0-18.2,8.2-18.2,18.2s8.2,18.2,18.2,18.2s18.2-8.2,18.2-18.2C224.2,100.9,216.1,92.8,206,92.8z M206,117.9c-3.8,0-6.9-3.1-6.9-6.9s3.1-6.9,6.9-6.9c3.8,0,6.9,3.1,6.9,6.9C212.9,114.8,209.8,117.9,206,117.9z"/><path fill="#000000" d="M127.8,92.8c-10.1,0-18.2,8.2-18.2,18.2s8.2,18.2,18.2,18.2s18.2-8.2,18.2-18.2C146.1,100.9,137.9,92.8,127.8,92.8z M127.9,117.9c-3.8,0-6.9-3.1-6.9-6.9s3.1-6.9,6.9-6.9c3.8,0,6.9,3.1,6.9,6.9C134.8,114.8,131.7,117.9,127.9,117.9z"/><path fill="#000000" d="M100.7,114h4.8c-0.6,0-0.9-2.5-0.9-4.7c0-13.2,10.7-23,23.8-23c13.1,0,23.8,9.4,23.8,22.6c0,2.2-0.3,5.2-0.9,5.2h32.2c-0.6,0-0.9-2.5-0.9-4.7c0-13.2,10.7-23,23.8-23c13.2,0,23.8,9.4,23.8,22.6c0,2.2-0.3,5.2-0.9,5.2h6.1c5.2,0,7-0.9,7-6.1V84h-1.3c-3.4,0-6.3-2.5-6.3-5.9c0-3.4,2.8-5.9,6.3-5.9h3.1c-1.3-3-4.7-5.9-8.8-5.9h-8.4l-20.3-33h-53.1l-27.7,33h-25.4c-4.1,0-7.5,3-8.8,5.9H107c3.4,0,6.3,2.5,6.3,5.9c0,3.4-2.8,5.9-6.3,5.9H89.7v23.9C89.7,113.1,95.6,114,100.7,114z M182.7,39.1H201l16.2,27h-34.5V39.1z M184.5,77h3v5.9h-3V77z M175.6,82.9h-3V77h3V82.9z M160.1,39.1h13.6v27H138L160.1,39.1z"/><path fill="#000000" d="M224.2,144.9l-43.6,20.7c5.7,15.4-4.9,26-16,26.5c-3.6,0.2-5.4-0.2-8.7-1.2l-22.8-7.5c-5.9-2.1-4.8-7,5.9-3.3l18.7,6.4c21.1,6.4,25-20.5,9.9-26.1l-6.3-2.5l-56.3-22.4c-7.4-2-15.3-1.4-23.8,2.4L10,161.6l13.9,61.2l42.7-24.7c10.7-6.2,11.4-5.9,23.2-3.4l69.2,14.3c4.1,1.4,8.6,0.4,13.5-2.4l65.8-38C255.4,158.8,241.1,135.2,224.2,144.9z"/></g></g>
</svg>