<svg class="svg-icon" style="width: 1em;height: 1em;vertical-align: middle;fill: currentColor;overflow: hidden;" viewBox="0 0 1024 1024" version="1.1" xmlns="http://www.w3.org/2000/svg"><path d="M136.533333 341.333333h750.933334c18.773333 0 34.133333-15.36 34.133333-34.133333V102.4c0-18.773333-15.36-34.133333-34.133333-34.133333H136.533333c-18.773333 0-34.133333 15.36-34.133333 34.133333v204.8c0 18.773333 15.36 34.133333 34.133333 34.133333z m34.133334-204.8h682.666666v136.533334H170.666667V136.533333z m701.44 627.712c4.778667 2.389333 9.898667 3.754667 15.36 3.754667 7.168 0 14.336-2.389333 20.48-6.826667l68.266666-51.2c8.533333-6.485333 13.653333-16.725333 13.653334-27.306666s-5.12-20.821333-13.653334-27.306667l-68.266666-51.2a33.9968 33.9968 0 0 0-35.84-3.072c-11.605333 5.802667-18.773333 17.408-18.773334 30.378667v17.066666h-85.333333v-204.8c0-18.773333-15.36-34.133333-34.133333-34.133333h-443.733334c-18.773333 0-34.133333 15.36-34.133333 34.133333v204.8H170.666667v-17.066666c0-12.970667-7.168-24.576-18.773334-30.378667a33.9968 33.9968 0 0 0-35.84 3.072l-68.266666 51.2c-8.533333 6.485333-13.653333 16.725333-13.653334 27.306667s5.12 20.821333 13.653334 27.306666l68.266666 51.2c6.144 4.437333 13.312 6.826667 20.48 6.826667 5.12 0 10.581333-1.365333 15.36-3.754667 11.605333-5.802667 18.773333-17.408 18.773334-30.378666V716.8h85.333333v170.666667h-170.666667v68.266666h204.8c18.773333 0 34.133333-15.36 34.133334-34.133333v-204.8H443.733333v-68.266667H324.266667v-170.666666h375.466666v170.666666H580.266667v68.266667h119.466666v204.8c0 18.773333 15.36 34.133333 34.133334 34.133333h204.8v-68.266666h-170.666667v-170.666667H853.333333v17.066667c0 12.970667 7.168 24.576 18.773334 30.378666z"  /></svg>